<svg width="26" height="25" viewBox="0 0 26 25" fill="none" xmlns="http://www.w3.org/2000/svg">
<path d="M12.7894 11.5591C13.7308 11.5591 14.651 11.28 15.4338 10.757C16.2165 10.234 16.8265 9.4906 17.1868 8.62089C17.547 7.75118 17.6413 6.79417 17.4576 5.87089C17.274 4.9476 16.8207 4.09952 16.155 3.43387C15.4894 2.76822 14.6413 2.3149 13.718 2.13125C12.7947 1.9476 11.8377 2.04186 10.968 2.4021C10.0983 2.76235 9.35493 3.37241 8.83193 4.15513C8.30893 4.93785 8.02979 5.85808 8.02979 6.79945C8.02979 8.06179 8.53125 9.27242 9.42386 10.165C10.3165 11.0576 11.5271 11.5591 12.7894 11.5591ZM12.7894 3.3997C13.4618 3.3997 14.1192 3.59909 14.6782 3.97266C15.2373 4.34623 15.6731 4.8772 15.9304 5.49842C16.1877 6.11964 16.255 6.80322 16.1239 7.46271C15.9927 8.12219 15.6689 8.72797 15.1934 9.20344C14.718 9.6789 14.1122 10.0027 13.4527 10.1339C12.7932 10.2651 12.1096 10.1977 11.4884 9.94041C10.8672 9.68309 10.3362 9.24734 9.96265 8.68825C9.58908 8.12916 9.38969 7.47186 9.38969 6.79945C9.38969 5.89778 9.74787 5.03304 10.3854 4.39546C11.023 3.75788 11.8878 3.3997 12.7894 3.3997Z" fill="#E16B66"/>
<path d="M21.2683 16.5704C20.1779 15.4179 18.8638 14.4999 17.4065 13.8725C15.9492 13.2451 14.3793 12.9215 12.7927 12.9215C11.2061 12.9215 9.63617 13.2451 8.17888 13.8725C6.72158 14.4999 5.40756 15.4179 4.31713 16.5704C4.08072 16.8229 3.94942 17.156 3.94995 17.5019V21.0785C3.94995 21.4391 4.09323 21.785 4.34826 22.0401C4.60329 22.2951 4.94919 22.4384 5.30985 22.4384H20.2688C20.6294 22.4384 20.9753 22.2951 21.2304 22.0401C21.4854 21.785 21.6287 21.4391 21.6287 21.0785V17.5019C21.631 17.1569 21.5022 16.8239 21.2683 16.5704ZM20.2688 21.0785H5.30985V17.4951C6.2735 16.4804 7.43353 15.6724 8.71937 15.1202C10.0052 14.5681 11.3899 14.2834 12.7893 14.2834C14.1887 14.2834 15.5734 14.5681 16.8592 15.1202C18.1451 15.6724 19.3051 16.4804 20.2688 17.4951V21.0785Z" fill="#E16B66"/>
</svg>
