<svg width="28" height="28" viewBox="0 0 28 28" fill="none" xmlns="http://www.w3.org/2000/svg">
<path d="M19.5097 16.4035C19.2117 16.2504 17.7269 15.523 17.4507 15.4246C17.1746 15.3207 16.9722 15.2715 16.7726 15.5777C16.5703 15.8813 15.996 16.5566 15.8156 16.7617C15.6406 16.9641 15.4628 16.9887 15.1648 16.8383C13.3929 15.9523 12.2308 15.2578 11.0632 13.2535C10.7542 12.7203 11.3722 12.7586 11.9492 11.6074C12.0476 11.4051 11.9984 11.2328 11.9218 11.0797C11.8453 10.9266 11.2437 9.44453 10.9921 8.84023C10.7488 8.25234 10.4972 8.33437 10.314 8.32344C10.139 8.3125 9.9394 8.3125 9.73706 8.3125C9.53471 8.3125 9.20932 8.38906 8.93315 8.68711C8.65698 8.99063 7.87769 9.7207 7.87769 11.2027C7.87769 12.6848 8.95776 14.1203 9.10542 14.3227C9.25854 14.525 11.23 17.5656 14.257 18.8754C16.171 19.7012 16.9203 19.7723 17.8773 19.6301C18.4597 19.5426 19.6601 18.9027 19.9089 18.1945C20.1577 17.4891 20.1577 16.8848 20.0839 16.759C20.0101 16.625 19.8077 16.5484 19.5097 16.4035Z" fill="#858585"/>
<path d="M25.2983 9.25312C24.6804 7.78477 23.7944 6.4668 22.6651 5.33477C21.5358 4.20547 20.2179 3.3168 18.7468 2.70156C17.2429 2.06992 15.646 1.75 13.9999 1.75H13.9452C12.2882 1.7582 10.6831 2.08633 9.17374 2.73164C7.71632 3.35508 6.40929 4.24102 5.29093 5.37031C4.17257 6.49961 3.29483 7.81211 2.6878 9.275C2.0589 10.7898 1.74171 12.4004 1.74991 14.0574C1.75811 15.9551 2.21202 17.8391 3.06241 19.5234V23.6797C3.06241 24.3742 3.62569 24.9375 4.32022 24.9375H8.47921C10.1636 25.7879 12.0476 26.2418 13.9452 26.25H14.0026C15.6405 26.25 17.2292 25.9328 18.7249 25.3121C20.1878 24.7023 21.503 23.8273 22.6296 22.709C23.7589 21.5906 24.6476 20.2836 25.2683 18.8262C25.9136 17.3168 26.2417 15.7117 26.2499 14.0547C26.2581 12.3895 25.9355 10.7734 25.2983 9.25312ZM21.1667 21.2297C19.2499 23.1273 16.7069 24.1719 13.9999 24.1719H13.9534C12.3046 24.1637 10.6667 23.7535 9.22022 22.9824L8.99054 22.8594H5.14054V19.0094L5.01749 18.7797C4.2464 17.3332 3.83624 15.6953 3.82804 14.0465C3.8171 11.3203 4.8589 8.76094 6.77022 6.8332C8.67882 4.90547 11.23 3.83906 13.9562 3.82812H14.0026C15.3698 3.82812 16.696 4.09336 17.9456 4.61836C19.1651 5.12969 20.2589 5.86523 21.1995 6.80586C22.1374 7.74375 22.8757 8.84023 23.387 10.0598C23.9175 11.323 24.1827 12.6629 24.1773 14.0465C24.1608 16.7699 23.0917 19.3211 21.1667 21.2297Z" fill="#858585"/>
</svg>
