<svg width="26" height="25" viewBox="0 0 26 25" fill="none" xmlns="http://www.w3.org/2000/svg">
<path d="M9.81114 21.7982C10.6561 21.7982 11.341 21.1132 11.341 20.2683C11.341 19.4234 10.6561 18.7384 9.81114 18.7384C8.9662 18.7384 8.28125 19.4234 8.28125 20.2683C8.28125 21.1132 8.9662 21.7982 9.81114 21.7982Z" fill="#E16B66"/>
<path d="M19.1061 21.7982C19.951 21.7982 20.6359 21.1132 20.6359 20.2683C20.6359 19.4234 19.951 18.7384 19.1061 18.7384C18.2611 18.7384 17.5762 19.4234 17.5762 20.2683C17.5762 21.1132 18.2611 21.7982 19.1061 21.7982Z" fill="#E16B66"/>
<path d="M23.2402 3.69112C23.1769 3.61313 23.0971 3.55011 23.0066 3.50661C22.9161 3.46311 22.817 3.44021 22.7166 3.43954H8.56003L9.002 4.79944H21.8259L20.0104 12.9588H9.81114L6.70377 3.11997C6.67016 3.01557 6.61179 2.92085 6.53365 2.84389C6.4555 2.76693 6.3599 2.71001 6.255 2.678L3.4672 1.82126C3.38148 1.79492 3.29141 1.78572 3.20214 1.79419C3.11286 1.80266 3.02613 1.82863 2.94689 1.87061C2.78686 1.95541 2.66706 2.10031 2.61387 2.27343C2.56067 2.44655 2.57842 2.63371 2.66322 2.79374C2.74801 2.95378 2.89291 3.07357 3.06603 3.12677L5.50705 3.87471L8.62803 13.734L7.51291 14.6451L7.42451 14.7335C7.14868 15.0514 6.99234 15.4555 6.98241 15.8762C6.97248 16.297 7.10959 16.708 7.37012 17.0385C7.55545 17.2639 7.79095 17.4428 8.05778 17.5609C8.32461 17.6789 8.61538 17.7329 8.90681 17.7185H20.2552C20.4355 17.7185 20.6085 17.6469 20.736 17.5193C20.8635 17.3918 20.9351 17.2189 20.9351 17.0385C20.9351 16.8582 20.8635 16.6853 20.736 16.5578C20.6085 16.4302 20.4355 16.3586 20.2552 16.3586H8.79801C8.71972 16.3559 8.64343 16.3331 8.57653 16.2923C8.50962 16.2516 8.45436 16.1942 8.41608 16.1259C8.3778 16.0575 8.3578 15.9805 8.358 15.9021C8.35821 15.8238 8.37861 15.7468 8.41724 15.6786L10.0559 14.3187H20.5544C20.7115 14.3226 20.8652 14.2718 20.9892 14.1751C21.1131 14.0784 21.1998 13.9418 21.2343 13.7884L23.3897 4.26908C23.4104 4.16771 23.4077 4.06296 23.3818 3.96281C23.3559 3.86265 23.3074 3.76973 23.2402 3.69112Z" fill="#E16B66"/>
</svg>
